<svg xmlns="http://www.w3.org/2000/svg" xmlns:xlink="http://www.w3.org/1999/xlink" xml:lang="en" height="196.83999999999995pt" width="364.832pt" viewBox="-45.23199999999999 -169.2 364.832 196.83999999999995"><circle cx="3.857637417314163e-15" cy="-63.0" r="18.0" style="stroke:black;fill:none;stroke-width:2.0;stroke-dasharray:-;" /><path d="M 0.0,-0.0 L 2.7554552980815448e-15,-45.0 L 2.7554552980815448e-15,-45.0 M 4.9598195365467806e-15,-81.0 L 4.9598195365467806e-15,-81.0 L 7.715274834628325e-15,-126.0" style="stroke:black;fill:none;stroke-width:2.0;stroke-dasharray:-;stroke-linecap:round;stroke-linejoin:round;" /><path d="M 3.6000000000000036,-54.0 L -3.5999999999999965,-54.0" style="stroke:black;fill:none;stroke-width:2.0;stroke-dasharray:-;stroke-linecap:round;stroke-linejoin:round;" /><path d="M 4.188292053083947e-15,-68.39999999999999 L 4.629164900776995e-15,-75.60000000000001" style="stroke:black;fill:none;stroke-width:2.0;stroke-dasharray:-;stroke-linecap:round;stroke-linejoin:round;" /><path d="M 3.6000000000000045,-72.0 L -3.5999999999999956,-72.0" style="stroke:black;fill:none;stroke-width:2.0;stroke-dasharray:-;stroke-linecap:round;stroke-linejoin:round;" /><path d="M 7.715274834628325e-15,-126.0 L 27.000000000000007,-126.0 L 54.00000000000001,-126.0" style="stroke:black;fill:none;stroke-width:2.0;stroke-dasharray:-;stroke-linecap:round;stroke-linejoin:round;" /><path d="M 54.00000000000001,-126.0 L 99.0,-126.0 M 107.64000000000001,-129.6 L 127.8,-142.20000000000002 M 135.0,-126.0 L 180.0,-126.0" style="stroke:black;fill:none;stroke-width:2.0;stroke-dasharray:-;stroke-linecap:round;stroke-linejoin:round;" /><path d="M 180.0,-126.0 L 225.0,-126.0 L 228.0,-135.0 L 234.0,-117.0 L 239.99999999999997,-135.0 L 246.0,-117.0 L 252.0,-135.0 L 258.0,-117.0 L 261.0,-126.0 L 306.0,-126.0" style="stroke:black;fill:none;stroke-width:2.0;stroke-dasharray:-;stroke-linecap:round;stroke-linejoin:round;" /><path d="M 306.0,-126.0 L 306.0,-66.24000000000001 M 315.0,-66.24000000000001 L 297.0,-66.24000000000001 M 315.0,-59.760000000000005 L 297.0,-59.760000000000005 M 306.0,-59.760000000000005 L 306.0,-0.0" style="stroke:black;fill:none;stroke-width:2.0;stroke-dasharray:-;stroke-linecap:round;stroke-linejoin:round;" /><path d="M 306.0,-0.0 L 252.0,-6.613092715395707e-15 L 198.0,-1.3226185430791413e-14" style="stroke:black;fill:none;stroke-width:2.0;stroke-dasharray:-;stroke-linecap:round;stroke-linejoin:round;" /><path d="M 198.0,-1.3226185430791413e-14 L 198.0,14.399999999999986 L 189.0,14.399999999999986 L 207.0,14.399999999999986 M 191.70000000000002,18.719999999999988 L 204.29999999999998,18.719999999999988 M 196.20000000000002,23.03999999999999 L 199.79999999999998,23.03999999999999" style="stroke:black;fill:none;stroke-width:2.0;stroke-dasharray:-;stroke-linecap:round;stroke-linejoin:round;" /><path d="M 198.0,-1.3226185430791413e-14 L 99.0,-2.535018874235021e-14 L 0.0,-3.747419205390901e-14" style="stroke:black;fill:none;stroke-width:2.0;stroke-dasharray:-;stroke-linecap:round;stroke-linejoin:round;" /><path d="M 0.0,-3.747419205390901e-14 L 1.1473162337363212e-30,-5.621128808086352e-14 L 2.2946324674726425e-30,-7.494838410781802e-14" style="stroke:black;fill:none;stroke-width:2.0;stroke-dasharray:-;stroke-linecap:round;stroke-linejoin:round;" /><text x="-21.599999999999994" y="-82.5" dominant-baseline="central" fill="black" font-size="13" font-family="sans" text-anchor="end"><tspan x="-21.599999999999994" dy="13">Vs</tspan><tspan x="-21.599999999999994" dy="13">9 V</tspan></text><circle cx="103.32000000000001" cy="-126.0" r="4.32" style="stroke:black;fill:white;stroke-width:2.0;stroke-dasharray:-;" /><circle cx="130.68" cy="-126.0" r="4.32" style="stroke:black;fill:white;stroke-width:2.0;stroke-dasharray:-;" /><text x="117.0" y="-158.79999999999998" dominant-baseline="ideographic" fill="black" font-size="13" font-family="sans" text-anchor="middle"><tspan x="117.0" dy="13">SW</tspan></text><text x="243.0" y="-164.6" dominant-baseline="ideographic" fill="black" font-size="13" font-family="sans" text-anchor="middle"><tspan x="243.0" dy="13">R</tspan><tspan x="243.0" dy="13">1 kΩ</tspan></text><text x="293.40000000000003" y="-82.5" dominant-baseline="central" fill="black" font-size="13" font-family="sans" text-anchor="end"><tspan x="293.40000000000003" dy="13">C</tspan><tspan x="293.40000000000003" dy="13">1 μF</tspan></text><circle cx="306.0" cy="-126.0" r="2.6999999999999997" style="stroke:black;fill:black;stroke-width:2.0;stroke-dasharray:-;" /></svg>