<?xml version="1.0" encoding="utf-8" standalone="no"?>
<!DOCTYPE svg PUBLIC "-//W3C//DTD SVG 1.1//EN"
  "http://www.w3.org/Graphics/SVG/1.1/DTD/svg11.dtd">
<svg xmlns:xlink="http://www.w3.org/1999/xlink" width="241.704pt" height="248.4pt" viewBox="0 0 241.704 248.4" xmlns="http://www.w3.org/2000/svg" version="1.1">
 <metadata>
  <rdf:RDF xmlns:dc="http://purl.org/dc/elements/1.1/" xmlns:cc="http://creativecommons.org/ns#" xmlns:rdf="http://www.w3.org/1999/02/22-rdf-syntax-ns#">
   <cc:Work>
    <dc:type rdf:resource="http://purl.org/dc/dcmitype/StillImage"/>
    <dc:date>2026-01-30T19:23:51.808699</dc:date>
    <dc:format>image/svg+xml</dc:format>
    <dc:creator>
     <cc:Agent>
      <dc:title>Matplotlib v3.10.7, https://matplotlib.org/</dc:title>
     </cc:Agent>
    </dc:creator>
   </cc:Work>
  </rdf:RDF>
 </metadata>
 <defs>
  <style type="text/css">*{stroke-linejoin: round; stroke-linecap: butt}</style>
 </defs>
 <g id="figure_1">
  <g id="patch_1">
   <path d="M 0 248.4 
L 241.704 248.4 
L 241.704 0 
L 0 0 
L 0 248.4 
z
" style="fill: none"/>
  </g>
  <g id="axes_1">
   <g id="patch_2">
    <path d="M 48.024 76.68 
C 52.797656 76.68 57.376438 74.783406 60.751922 71.407922 
C 64.127406 68.032438 66.024 63.453656 66.024 58.68 
C 66.024 53.906344 64.127406 49.327562 60.751922 45.952078 
C 57.376438 42.576594 52.797656 40.68 48.024 40.68 
C 43.250344 40.68 38.671562 42.576594 35.296078 45.952078 
C 31.920594 49.327562 30.024 53.906344 30.024 58.68 
C 30.024 63.453656 31.920594 68.032438 35.296078 71.407922 
C 38.671562 74.783406 43.250344 76.68 48.024 76.68 
L 48.024 76.68 
z
" clip-path="url(#pe73b70431b)" style="fill: none; stroke: #000000; stroke-width: 2; stroke-linejoin: miter"/>
   </g>
   <g id="patch_3">
    <path d="M 228.024 157.68 
C 229.217016 157.68 230.36239 157.205571 231.205981 156.361981 
C 232.049571 155.51839 232.524 154.373016 232.524 153.18 
C 232.524 151.986984 232.049571 150.84161 231.205981 149.998019 
C 230.36239 149.154429 229.217016 148.68 228.024 148.68 
" clip-path="url(#pe73b70431b)" style="fill: none; stroke: #000000; stroke-width: 2; stroke-linejoin: miter"/>
   </g>
   <g id="patch_4">
    <path d="M 228.024 166.68 
C 229.217016 166.68 230.36239 166.205571 231.205981 165.361981 
C 232.049571 164.51839 232.524 163.373016 232.524 162.18 
C 232.524 160.986984 232.049571 159.84161 231.205981 158.998019 
C 230.36239 158.154429 229.217016 157.68 228.024 157.68 
" clip-path="url(#pe73b70431b)" style="fill: none; stroke: #000000; stroke-width: 2; stroke-linejoin: miter"/>
   </g>
   <g id="patch_5">
    <path d="M 228.024 175.68 
C 229.217016 175.68 230.36239 175.205571 231.205981 174.361981 
C 232.049571 173.51839 232.524 172.373016 232.524 171.18 
C 232.524 169.986984 232.049571 168.84161 231.205981 167.998019 
C 230.36239 167.154429 229.217016 166.68 228.024 166.68 
" clip-path="url(#pe73b70431b)" style="fill: none; stroke: #000000; stroke-width: 2; stroke-linejoin: miter"/>
   </g>
   <g id="patch_6">
    <path d="M 228.024 184.68 
C 229.217016 184.68 230.36239 184.205571 231.205981 183.361981 
C 232.049571 182.51839 232.524 181.373016 232.524 180.18 
C 232.524 178.986984 232.049571 177.84161 231.205981 176.998019 
C 230.36239 176.154429 229.217016 175.68 228.024 175.68 
" clip-path="url(#pe73b70431b)" style="fill: none; stroke: #000000; stroke-width: 2; stroke-linejoin: miter"/>
   </g>
   <g id="line2d_1">
    <path d="M 48.024 112.68 
L 48.024 76.68 
L 48.024 76.68 
M 48.024 40.68 
L 48.024 40.68 
L 48.024 4.68 
" clip-path="url(#pe73b70431b)" style="fill: none; stroke: #000000; stroke-width: 2; stroke-linecap: round"/>
   </g>
   <g id="line2d_2">
    <path d="M 51.624 67.68 
L 44.424 67.68 
" clip-path="url(#pe73b70431b)" style="fill: none; stroke: #000000; stroke-width: 2; stroke-linecap: round"/>
   </g>
   <g id="line2d_3">
    <path d="M 48.024 53.28 
L 48.024 46.08 
" clip-path="url(#pe73b70431b)" style="fill: none; stroke: #000000; stroke-width: 2; stroke-linecap: round"/>
   </g>
   <g id="line2d_4">
    <path d="M 51.624 49.68 
L 44.424 49.68 
" clip-path="url(#pe73b70431b)" style="fill: none; stroke: #000000; stroke-width: 2; stroke-linecap: round"/>
   </g>
   <g id="line2d_5">
    <path d="M 48.024 4.68 
L 138.024 4.68 
L 228.024 4.68 
" clip-path="url(#pe73b70431b)" style="fill: none; stroke: #000000; stroke-width: 2; stroke-linecap: round"/>
   </g>
   <g id="line2d_6">
    <path d="M 228.024 4.68 
L 228.024 40.68 
L 237.024 43.68 
L 219.024 49.68 
L 237.024 55.68 
L 219.024 61.68 
L 237.024 67.68 
L 219.024 73.68 
L 228.024 76.68 
L 228.024 112.68 
" clip-path="url(#pe73b70431b)" style="fill: none; stroke: #000000; stroke-width: 2; stroke-linecap: round"/>
   </g>
   <g id="line2d_7">
    <path d="M 228.024 112.68 
L 228.024 148.68 
M 228.024 184.68 
L 228.024 220.68 
" clip-path="url(#pe73b70431b)" style="fill: none; stroke: #000000; stroke-width: 2; stroke-linecap: round"/>
   </g>
   <g id="line2d_8">
    <path d="M 228.024 220.68 
L 174.024 220.68 
L 120.024 220.68 
" clip-path="url(#pe73b70431b)" style="fill: none; stroke: #000000; stroke-width: 2; stroke-linecap: round"/>
   </g>
   <g id="line2d_9">
    <path d="M 120.024 220.68 
L 120.024 235.08 
L 111.024 235.08 
L 129.024 235.08 
M 113.724 239.4 
L 126.324 239.4 
M 118.224 243.72 
L 121.824 243.72 
" clip-path="url(#pe73b70431b)" style="fill: none; stroke: #000000; stroke-width: 2; stroke-linecap: round"/>
   </g>
   <g id="line2d_10">
    <path d="M 120.024 220.68 
L 84.024 220.68 
L 48.024 220.68 
" clip-path="url(#pe73b70431b)" style="fill: none; stroke: #000000; stroke-width: 2; stroke-linecap: round"/>
   </g>
   <g id="line2d_11">
    <path d="M 48.024 220.68 
L 48.024 166.68 
L 48.024 112.68 
" clip-path="url(#pe73b70431b)" style="fill: none; stroke: #000000; stroke-width: 2; stroke-linecap: round"/>
   </g>
   <g id="text_1">
    <!-- V₁ -->
    <g transform="translate(13.404 56.184375) scale(0.12 -0.12)">
     <defs>
      <path id="DejaVuSans-56" d="M 1831 0 
L 50 4666 
L 709 4666 
L 2188 738 
L 3669 4666 
L 4325 4666 
L 2547 0 
L 1831 0 
z
" transform="scale(0.015625)"/>
      <path id="DejaVuSans-2081" d="M 488 319 
L 1125 319 
L 1125 2229 
L 428 2101 
L 428 2463 
L 1147 2585 
L 1575 2585 
L 1575 319 
L 2216 319 
L 2216 -24 
L 488 -24 
L 488 319 
z
" transform="scale(0.015625)"/>
     </defs>
     <use xlink:href="#DejaVuSans-56"/>
     <use xlink:href="#DejaVuSans-2081" transform="translate(68.408203 0)"/>
    </g>
    <!-- 12V -->
    <g transform="translate(2.94525 67.798125) scale(0.12 -0.12)">
     <defs>
      <path id="DejaVuSans-31" d="M 794 531 
L 1825 531 
L 1825 4091 
L 703 3866 
L 703 4441 
L 1819 4666 
L 2450 4666 
L 2450 531 
L 3481 531 
L 3481 0 
L 794 0 
L 794 531 
z
" transform="scale(0.015625)"/>
      <path id="DejaVuSans-32" d="M 1228 531 
L 3431 531 
L 3431 0 
L 469 0 
L 469 531 
Q 828 903 1448 1529 
Q 2069 2156 2228 2338 
Q 2531 2678 2651 2914 
Q 2772 3150 2772 3378 
Q 2772 3750 2511 3984 
Q 2250 4219 1831 4219 
Q 1534 4219 1204 4116 
Q 875 4013 500 3803 
L 500 4441 
Q 881 4594 1212 4672 
Q 1544 4750 1819 4750 
Q 2544 4750 2975 4387 
Q 3406 4025 3406 3419 
Q 3406 3131 3298 2873 
Q 3191 2616 2906 2266 
Q 2828 2175 2409 1742 
Q 1991 1309 1228 531 
z
" transform="scale(0.015625)"/>
     </defs>
     <use xlink:href="#DejaVuSans-31"/>
     <use xlink:href="#DejaVuSans-32" transform="translate(63.623047 0)"/>
     <use xlink:href="#DejaVuSans-56" transform="translate(127.246094 0)"/>
    </g>
   </g>
   <g id="text_2">
    <!-- R₁  1kΩ -->
    <g transform="translate(170.89275 61.99125) scale(0.12 -0.12)">
     <defs>
      <path id="DejaVuSans-52" d="M 2841 2188 
Q 3044 2119 3236 1894 
Q 3428 1669 3622 1275 
L 4263 0 
L 3584 0 
L 2988 1197 
Q 2756 1666 2539 1819 
Q 2322 1972 1947 1972 
L 1259 1972 
L 1259 0 
L 628 0 
L 628 4666 
L 2053 4666 
Q 2853 4666 3247 4331 
Q 3641 3997 3641 3322 
Q 3641 2881 3436 2590 
Q 3231 2300 2841 2188 
z
M 1259 4147 
L 1259 2491 
L 2053 2491 
Q 2509 2491 2742 2702 
Q 2975 2913 2975 3322 
Q 2975 3731 2742 3939 
Q 2509 4147 2053 4147 
L 1259 4147 
z
" transform="scale(0.015625)"/>
      <path id="DejaVuSans-20" transform="scale(0.015625)"/>
      <path id="DejaVuSans-6b" d="M 581 4863 
L 1159 4863 
L 1159 1991 
L 2875 3500 
L 3609 3500 
L 1753 1863 
L 3688 0 
L 2938 0 
L 1159 1709 
L 1159 0 
L 581 0 
L 581 4863 
z
" transform="scale(0.015625)"/>
      <path id="DejaVuSans-3a9" d="M 4647 556 
L 4647 0 
L 2772 0 
L 2772 556 
Q 3325 859 3634 1378 
Q 3944 1897 3944 2528 
Q 3944 3278 3531 3731 
Q 3119 4184 2444 4184 
Q 1769 4184 1355 3729 
Q 941 3275 941 2528 
Q 941 1897 1250 1378 
Q 1563 859 2119 556 
L 2119 0 
L 244 0 
L 244 556 
L 1241 556 
Q 747 991 519 1456 
Q 294 1922 294 2497 
Q 294 3491 894 4106 
Q 1491 4722 2444 4722 
Q 3391 4722 3994 4106 
Q 4594 3494 4594 2528 
Q 4594 1922 4372 1459 
Q 4150 997 3647 556 
L 4647 556 
z
" transform="scale(0.015625)"/>
     </defs>
     <use xlink:href="#DejaVuSans-52"/>
     <use xlink:href="#DejaVuSans-2081" transform="translate(69.482422 0)"/>
     <use xlink:href="#DejaVuSans-20" transform="translate(109.570312 0)"/>
     <use xlink:href="#DejaVuSans-20" transform="translate(141.357422 0)"/>
     <use xlink:href="#DejaVuSans-31" transform="translate(173.144531 0)"/>
     <use xlink:href="#DejaVuSans-6b" transform="translate(236.767578 0)"/>
     <use xlink:href="#DejaVuSans-3a9" transform="translate(294.677734 0)"/>
    </g>
   </g>
   <g id="text_3">
    <!-- L₁  10mH -->
    <g transform="translate(169.315875 169.99125) scale(0.12 -0.12)">
     <defs>
      <path id="DejaVuSans-4c" d="M 628 4666 
L 1259 4666 
L 1259 531 
L 3531 531 
L 3531 0 
L 628 0 
L 628 4666 
z
" transform="scale(0.015625)"/>
      <path id="DejaVuSans-30" d="M 2034 4250 
Q 1547 4250 1301 3770 
Q 1056 3291 1056 2328 
Q 1056 1369 1301 889 
Q 1547 409 2034 409 
Q 2525 409 2770 889 
Q 3016 1369 3016 2328 
Q 3016 3291 2770 3770 
Q 2525 4250 2034 4250 
z
M 2034 4750 
Q 2819 4750 3233 4129 
Q 3647 3509 3647 2328 
Q 3647 1150 3233 529 
Q 2819 -91 2034 -91 
Q 1250 -91 836 529 
Q 422 1150 422 2328 
Q 422 3509 836 4129 
Q 1250 4750 2034 4750 
z
" transform="scale(0.015625)"/>
      <path id="DejaVuSans-6d" d="M 3328 2828 
Q 3544 3216 3844 3400 
Q 4144 3584 4550 3584 
Q 5097 3584 5394 3201 
Q 5691 2819 5691 2113 
L 5691 0 
L 5113 0 
L 5113 2094 
Q 5113 2597 4934 2840 
Q 4756 3084 4391 3084 
Q 3944 3084 3684 2787 
Q 3425 2491 3425 1978 
L 3425 0 
L 2847 0 
L 2847 2094 
Q 2847 2600 2669 2842 
Q 2491 3084 2119 3084 
Q 1678 3084 1418 2786 
Q 1159 2488 1159 1978 
L 1159 0 
L 581 0 
L 581 3500 
L 1159 3500 
L 1159 2956 
Q 1356 3278 1631 3431 
Q 1906 3584 2284 3584 
Q 2666 3584 2933 3390 
Q 3200 3197 3328 2828 
z
" transform="scale(0.015625)"/>
      <path id="DejaVuSans-48" d="M 628 4666 
L 1259 4666 
L 1259 2753 
L 3553 2753 
L 3553 4666 
L 4184 4666 
L 4184 0 
L 3553 0 
L 3553 2222 
L 1259 2222 
L 1259 0 
L 628 0 
L 628 4666 
z
" transform="scale(0.015625)"/>
     </defs>
     <use xlink:href="#DejaVuSans-4c"/>
     <use xlink:href="#DejaVuSans-2081" transform="translate(55.712891 0)"/>
     <use xlink:href="#DejaVuSans-20" transform="translate(95.800781 0)"/>
     <use xlink:href="#DejaVuSans-20" transform="translate(127.587891 0)"/>
     <use xlink:href="#DejaVuSans-31" transform="translate(159.375 0)"/>
     <use xlink:href="#DejaVuSans-30" transform="translate(222.998047 0)"/>
     <use xlink:href="#DejaVuSans-6d" transform="translate(286.621094 0)"/>
     <use xlink:href="#DejaVuSans-48" transform="translate(384.033203 0)"/>
    </g>
   </g>
  </g>
 </g>
 <defs>
  <clipPath id="pe73b70431b">
   <rect x="0" y="-0" width="241.704" height="248.4"/>
  </clipPath>
 </defs>
</svg>
