<?xml version="1.0" encoding="utf-8" standalone="no"?>
<!DOCTYPE svg PUBLIC "-//W3C//DTD SVG 1.1//EN"
  "http://www.w3.org/Graphics/SVG/1.1/DTD/svg11.dtd">
<svg xmlns:xlink="http://www.w3.org/1999/xlink" width="241.704pt" height="356.4pt" viewBox="0 0 241.704 356.4" xmlns="http://www.w3.org/2000/svg" version="1.1">
 <metadata>
  <rdf:RDF xmlns:dc="http://purl.org/dc/elements/1.1/" xmlns:cc="http://creativecommons.org/ns#" xmlns:rdf="http://www.w3.org/1999/02/22-rdf-syntax-ns#">
   <cc:Work>
    <dc:type rdf:resource="http://purl.org/dc/dcmitype/StillImage"/>
    <dc:date>2026-01-30T19:23:56.144989</dc:date>
    <dc:format>image/svg+xml</dc:format>
    <dc:creator>
     <cc:Agent>
      <dc:title>Matplotlib v3.10.7, https://matplotlib.org/</dc:title>
     </cc:Agent>
    </dc:creator>
   </cc:Work>
  </rdf:RDF>
 </metadata>
 <defs>
  <style type="text/css">*{stroke-linejoin: round; stroke-linecap: butt}</style>
 </defs>
 <g id="figure_1">
  <g id="patch_1">
   <path d="M 0 356.4 
L 241.704 356.4 
L 241.704 0 
L 0 0 
L 0 356.4 
z
" style="fill: none"/>
  </g>
  <g id="axes_1">
   <g id="patch_2">
    <path d="M 48.024 76.68 
C 52.797656 76.68 57.376438 74.783406 60.751922 71.407922 
C 64.127406 68.032438 66.024 63.453656 66.024 58.68 
C 66.024 53.906344 64.127406 49.327562 60.751922 45.952078 
C 57.376438 42.576594 52.797656 40.68 48.024 40.68 
C 43.250344 40.68 38.671562 42.576594 35.296078 45.952078 
C 31.920594 49.327562 30.024 53.906344 30.024 58.68 
C 30.024 63.453656 31.920594 68.032438 35.296078 71.407922 
C 38.671562 74.783406 43.250344 76.68 48.024 76.68 
L 48.024 76.68 
z
" clip-path="url(#p9072e75e94)" style="fill: none; stroke: #000000; stroke-width: 2; stroke-linejoin: miter"/>
   </g>
   <g id="patch_3">
    <path d="M 228.024 157.68 
C 229.217016 157.68 230.36239 157.205571 231.205981 156.361981 
C 232.049571 155.51839 232.524 154.373016 232.524 153.18 
C 232.524 151.986984 232.049571 150.84161 231.205981 149.998019 
C 230.36239 149.154429 229.217016 148.68 228.024 148.68 
" clip-path="url(#p9072e75e94)" style="fill: none; stroke: #000000; stroke-width: 2; stroke-linejoin: miter"/>
   </g>
   <g id="patch_4">
    <path d="M 228.024 166.68 
C 229.217016 166.68 230.36239 166.205571 231.205981 165.361981 
C 232.049571 164.51839 232.524 163.373016 232.524 162.18 
C 232.524 160.986984 232.049571 159.84161 231.205981 158.998019 
C 230.36239 158.154429 229.217016 157.68 228.024 157.68 
" clip-path="url(#p9072e75e94)" style="fill: none; stroke: #000000; stroke-width: 2; stroke-linejoin: miter"/>
   </g>
   <g id="patch_5">
    <path d="M 228.024 175.68 
C 229.217016 175.68 230.36239 175.205571 231.205981 174.361981 
C 232.049571 173.51839 232.524 172.373016 232.524 171.18 
C 232.524 169.986984 232.049571 168.84161 231.205981 167.998019 
C 230.36239 167.154429 229.217016 166.68 228.024 166.68 
" clip-path="url(#p9072e75e94)" style="fill: none; stroke: #000000; stroke-width: 2; stroke-linejoin: miter"/>
   </g>
   <g id="patch_6">
    <path d="M 228.024 184.68 
C 229.217016 184.68 230.36239 184.205571 231.205981 183.361981 
C 232.049571 182.51839 232.524 181.373016 232.524 180.18 
C 232.524 178.986984 232.049571 177.84161 231.205981 176.998019 
C 230.36239 176.154429 229.217016 175.68 228.024 175.68 
" clip-path="url(#p9072e75e94)" style="fill: none; stroke: #000000; stroke-width: 2; stroke-linejoin: miter"/>
   </g>
   <g id="line2d_1">
    <path d="M 48.024 112.68 
L 48.024 76.68 
L 48.024 76.68 
M 48.024 40.68 
L 48.024 40.68 
L 48.024 4.68 
" clip-path="url(#p9072e75e94)" style="fill: none; stroke: #000000; stroke-width: 2; stroke-linecap: round"/>
   </g>
   <g id="line2d_2">
    <path d="M 57.024 58.68 
L 56.274 56.816503 
L 55.524 55.08 
L 54.774 53.588831 
L 54.024 52.444617 
L 53.274 51.725334 
L 52.524 51.48 
L 51.774 51.725334 
L 51.024 52.444617 
L 50.274 53.588831 
L 49.524 55.08 
L 48.774 56.816503 
L 48.024 58.68 
L 47.274 60.543497 
L 46.524 62.28 
L 45.774 63.771169 
L 45.024 64.915383 
L 44.274 65.634666 
L 43.524 65.88 
L 42.774 65.634666 
L 42.024 64.915383 
L 41.274 63.771169 
L 40.524 62.28 
L 39.774 60.543497 
L 39.024 58.68 
" clip-path="url(#p9072e75e94)" style="fill: none; stroke: #000000; stroke-width: 2; stroke-linecap: round"/>
   </g>
   <g id="line2d_3">
    <path d="M 48.024 4.68 
L 138.024 4.68 
L 228.024 4.68 
" clip-path="url(#p9072e75e94)" style="fill: none; stroke: #000000; stroke-width: 2; stroke-linecap: round"/>
   </g>
   <g id="line2d_4">
    <path d="M 228.024 4.68 
L 228.024 40.68 
L 237.024 43.68 
L 219.024 49.68 
L 237.024 55.68 
L 219.024 61.68 
L 237.024 67.68 
L 219.024 73.68 
L 228.024 76.68 
L 228.024 112.68 
" clip-path="url(#p9072e75e94)" style="fill: none; stroke: #000000; stroke-width: 2; stroke-linecap: round"/>
   </g>
   <g id="line2d_5">
    <path d="M 228.024 112.68 
L 228.024 148.68 
M 228.024 184.68 
L 228.024 220.68 
" clip-path="url(#p9072e75e94)" style="fill: none; stroke: #000000; stroke-width: 2; stroke-linecap: round"/>
   </g>
   <g id="line2d_6">
    <path d="M 228.024 220.68 
L 228.024 271.44 
M 237.024 271.44 
L 219.024 271.44 
M 237.024 277.92 
L 219.024 277.92 
M 228.024 277.92 
L 228.024 328.68 
" clip-path="url(#p9072e75e94)" style="fill: none; stroke: #000000; stroke-width: 2; stroke-linecap: round"/>
   </g>
   <g id="line2d_7">
    <path d="M 228.024 328.68 
L 174.024 328.68 
L 120.024 328.68 
" clip-path="url(#p9072e75e94)" style="fill: none; stroke: #000000; stroke-width: 2; stroke-linecap: round"/>
   </g>
   <g id="line2d_8">
    <path d="M 120.024 328.68 
L 120.024 343.08 
L 111.024 343.08 
L 129.024 343.08 
M 113.724 347.4 
L 126.324 347.4 
M 118.224 351.72 
L 121.824 351.72 
" clip-path="url(#p9072e75e94)" style="fill: none; stroke: #000000; stroke-width: 2; stroke-linecap: round"/>
   </g>
   <g id="line2d_9">
    <path d="M 120.024 328.68 
L 84.024 328.68 
L 48.024 328.68 
" clip-path="url(#p9072e75e94)" style="fill: none; stroke: #000000; stroke-width: 2; stroke-linecap: round"/>
   </g>
   <g id="line2d_10">
    <path d="M 48.024 328.68 
L 48.024 220.68 
L 48.024 112.68 
" clip-path="url(#p9072e75e94)" style="fill: none; stroke: #000000; stroke-width: 2; stroke-linecap: round"/>
   </g>
   <g id="text_1">
    <!-- V₁ -->
    <g transform="translate(13.404 56.184375) scale(0.12 -0.12)">
     <defs>
      <path id="DejaVuSans-56" d="M 1831 0 
L 50 4666 
L 709 4666 
L 2188 738 
L 3669 4666 
L 4325 4666 
L 2547 0 
L 1831 0 
z
" transform="scale(0.015625)"/>
      <path id="DejaVuSans-2081" d="M 488 319 
L 1125 319 
L 1125 2229 
L 428 2101 
L 428 2463 
L 1147 2585 
L 1575 2585 
L 1575 319 
L 2216 319 
L 2216 -24 
L 488 -24 
L 488 319 
z
" transform="scale(0.015625)"/>
     </defs>
     <use xlink:href="#DejaVuSans-56"/>
     <use xlink:href="#DejaVuSans-2081" transform="translate(68.408203 0)"/>
    </g>
    <!-- 10V -->
    <g transform="translate(2.94525 67.798125) scale(0.12 -0.12)">
     <defs>
      <path id="DejaVuSans-31" d="M 794 531 
L 1825 531 
L 1825 4091 
L 703 3866 
L 703 4441 
L 1819 4666 
L 2450 4666 
L 2450 531 
L 3481 531 
L 3481 0 
L 794 0 
L 794 531 
z
" transform="scale(0.015625)"/>
      <path id="DejaVuSans-30" d="M 2034 4250 
Q 1547 4250 1301 3770 
Q 1056 3291 1056 2328 
Q 1056 1369 1301 889 
Q 1547 409 2034 409 
Q 2525 409 2770 889 
Q 3016 1369 3016 2328 
Q 3016 3291 2770 3770 
Q 2525 4250 2034 4250 
z
M 2034 4750 
Q 2819 4750 3233 4129 
Q 3647 3509 3647 2328 
Q 3647 1150 3233 529 
Q 2819 -91 2034 -91 
Q 1250 -91 836 529 
Q 422 1150 422 2328 
Q 422 3509 836 4129 
Q 1250 4750 2034 4750 
z
" transform="scale(0.015625)"/>
     </defs>
     <use xlink:href="#DejaVuSans-31"/>
     <use xlink:href="#DejaVuSans-30" transform="translate(63.623047 0)"/>
     <use xlink:href="#DejaVuSans-56" transform="translate(127.246094 0)"/>
    </g>
   </g>
   <g id="text_2">
    <!-- R₁  100Ω -->
    <g transform="translate(162.5715 61.99125) scale(0.12 -0.12)">
     <defs>
      <path id="DejaVuSans-52" d="M 2841 2188 
Q 3044 2119 3236 1894 
Q 3428 1669 3622 1275 
L 4263 0 
L 3584 0 
L 2988 1197 
Q 2756 1666 2539 1819 
Q 2322 1972 1947 1972 
L 1259 1972 
L 1259 0 
L 628 0 
L 628 4666 
L 2053 4666 
Q 2853 4666 3247 4331 
Q 3641 3997 3641 3322 
Q 3641 2881 3436 2590 
Q 3231 2300 2841 2188 
z
M 1259 4147 
L 1259 2491 
L 2053 2491 
Q 2509 2491 2742 2702 
Q 2975 2913 2975 3322 
Q 2975 3731 2742 3939 
Q 2509 4147 2053 4147 
L 1259 4147 
z
" transform="scale(0.015625)"/>
      <path id="DejaVuSans-20" transform="scale(0.015625)"/>
      <path id="DejaVuSans-3a9" d="M 4647 556 
L 4647 0 
L 2772 0 
L 2772 556 
Q 3325 859 3634 1378 
Q 3944 1897 3944 2528 
Q 3944 3278 3531 3731 
Q 3119 4184 2444 4184 
Q 1769 4184 1355 3729 
Q 941 3275 941 2528 
Q 941 1897 1250 1378 
Q 1563 859 2119 556 
L 2119 0 
L 244 0 
L 244 556 
L 1241 556 
Q 747 991 519 1456 
Q 294 1922 294 2497 
Q 294 3491 894 4106 
Q 1491 4722 2444 4722 
Q 3391 4722 3994 4106 
Q 4594 3494 4594 2528 
Q 4594 1922 4372 1459 
Q 4150 997 3647 556 
L 4647 556 
z
" transform="scale(0.015625)"/>
     </defs>
     <use xlink:href="#DejaVuSans-52"/>
     <use xlink:href="#DejaVuSans-2081" transform="translate(69.482422 0)"/>
     <use xlink:href="#DejaVuSans-20" transform="translate(109.570312 0)"/>
     <use xlink:href="#DejaVuSans-20" transform="translate(141.357422 0)"/>
     <use xlink:href="#DejaVuSans-31" transform="translate(173.144531 0)"/>
     <use xlink:href="#DejaVuSans-30" transform="translate(236.767578 0)"/>
     <use xlink:href="#DejaVuSans-30" transform="translate(300.390625 0)"/>
     <use xlink:href="#DejaVuSans-3a9" transform="translate(364.013672 0)"/>
    </g>
   </g>
   <g id="text_3">
    <!-- L₁  50mH -->
    <g transform="translate(169.315875 169.99125) scale(0.12 -0.12)">
     <defs>
      <path id="DejaVuSans-4c" d="M 628 4666 
L 1259 4666 
L 1259 531 
L 3531 531 
L 3531 0 
L 628 0 
L 628 4666 
z
" transform="scale(0.015625)"/>
      <path id="DejaVuSans-35" d="M 691 4666 
L 3169 4666 
L 3169 4134 
L 1269 4134 
L 1269 2991 
Q 1406 3038 1543 3061 
Q 1681 3084 1819 3084 
Q 2600 3084 3056 2656 
Q 3513 2228 3513 1497 
Q 3513 744 3044 326 
Q 2575 -91 1722 -91 
Q 1428 -91 1123 -41 
Q 819 9 494 109 
L 494 744 
Q 775 591 1075 516 
Q 1375 441 1709 441 
Q 2250 441 2565 725 
Q 2881 1009 2881 1497 
Q 2881 1984 2565 2268 
Q 2250 2553 1709 2553 
Q 1456 2553 1204 2497 
Q 953 2441 691 2322 
L 691 4666 
z
" transform="scale(0.015625)"/>
      <path id="DejaVuSans-6d" d="M 3328 2828 
Q 3544 3216 3844 3400 
Q 4144 3584 4550 3584 
Q 5097 3584 5394 3201 
Q 5691 2819 5691 2113 
L 5691 0 
L 5113 0 
L 5113 2094 
Q 5113 2597 4934 2840 
Q 4756 3084 4391 3084 
Q 3944 3084 3684 2787 
Q 3425 2491 3425 1978 
L 3425 0 
L 2847 0 
L 2847 2094 
Q 2847 2600 2669 2842 
Q 2491 3084 2119 3084 
Q 1678 3084 1418 2786 
Q 1159 2488 1159 1978 
L 1159 0 
L 581 0 
L 581 3500 
L 1159 3500 
L 1159 2956 
Q 1356 3278 1631 3431 
Q 1906 3584 2284 3584 
Q 2666 3584 2933 3390 
Q 3200 3197 3328 2828 
z
" transform="scale(0.015625)"/>
      <path id="DejaVuSans-48" d="M 628 4666 
L 1259 4666 
L 1259 2753 
L 3553 2753 
L 3553 4666 
L 4184 4666 
L 4184 0 
L 3553 0 
L 3553 2222 
L 1259 2222 
L 1259 0 
L 628 0 
L 628 4666 
z
" transform="scale(0.015625)"/>
     </defs>
     <use xlink:href="#DejaVuSans-4c"/>
     <use xlink:href="#DejaVuSans-2081" transform="translate(55.712891 0)"/>
     <use xlink:href="#DejaVuSans-20" transform="translate(95.800781 0)"/>
     <use xlink:href="#DejaVuSans-20" transform="translate(127.587891 0)"/>
     <use xlink:href="#DejaVuSans-35" transform="translate(159.375 0)"/>
     <use xlink:href="#DejaVuSans-30" transform="translate(222.998047 0)"/>
     <use xlink:href="#DejaVuSans-6d" transform="translate(286.621094 0)"/>
     <use xlink:href="#DejaVuSans-48" transform="translate(384.033203 0)"/>
    </g>
   </g>
   <g id="text_4">
    <!-- C₁  10μF -->
    <g transform="translate(164.799 277.99125) scale(0.12 -0.12)">
     <defs>
      <path id="DejaVuSans-43" d="M 4122 4306 
L 4122 3641 
Q 3803 3938 3442 4084 
Q 3081 4231 2675 4231 
Q 1875 4231 1450 3742 
Q 1025 3253 1025 2328 
Q 1025 1406 1450 917 
Q 1875 428 2675 428 
Q 3081 428 3442 575 
Q 3803 722 4122 1019 
L 4122 359 
Q 3791 134 3420 21 
Q 3050 -91 2638 -91 
Q 1578 -91 968 557 
Q 359 1206 359 2328 
Q 359 3453 968 4101 
Q 1578 4750 2638 4750 
Q 3056 4750 3426 4639 
Q 3797 4528 4122 4306 
z
" transform="scale(0.015625)"/>
      <path id="DejaVuSans-3bc" d="M 544 -1331 
L 544 3500 
L 1119 3500 
L 1119 1325 
Q 1119 872 1334 640 
Q 1550 409 1972 409 
Q 2434 409 2667 671 
Q 2900 934 2900 1459 
L 2900 3500 
L 3475 3500 
L 3475 806 
Q 3475 619 3529 530 
Q 3584 441 3700 441 
Q 3728 441 3778 458 
Q 3828 475 3916 513 
L 3916 50 
Q 3788 -22 3673 -56 
Q 3559 -91 3450 -91 
Q 3234 -91 3106 31 
Q 2978 153 2931 403 
Q 2775 156 2548 32 
Q 2322 -91 2016 -91 
Q 1697 -91 1473 31 
Q 1250 153 1119 397 
L 1119 -1331 
L 544 -1331 
z
" transform="scale(0.015625)"/>
      <path id="DejaVuSans-46" d="M 628 4666 
L 3309 4666 
L 3309 4134 
L 1259 4134 
L 1259 2759 
L 3109 2759 
L 3109 2228 
L 1259 2228 
L 1259 0 
L 628 0 
L 628 4666 
z
" transform="scale(0.015625)"/>
     </defs>
     <use xlink:href="#DejaVuSans-43"/>
     <use xlink:href="#DejaVuSans-2081" transform="translate(69.824219 0)"/>
     <use xlink:href="#DejaVuSans-20" transform="translate(109.912109 0)"/>
     <use xlink:href="#DejaVuSans-20" transform="translate(141.699219 0)"/>
     <use xlink:href="#DejaVuSans-31" transform="translate(173.486328 0)"/>
     <use xlink:href="#DejaVuSans-30" transform="translate(237.109375 0)"/>
     <use xlink:href="#DejaVuSans-3bc" transform="translate(300.732422 0)"/>
     <use xlink:href="#DejaVuSans-46" transform="translate(364.355469 0)"/>
    </g>
   </g>
  </g>
 </g>
 <defs>
  <clipPath id="p9072e75e94">
   <rect x="0" y="0" width="241.704" height="356.4"/>
  </clipPath>
 </defs>
</svg>
