<?xml version="1.0" encoding="utf-8" standalone="no"?>
<!DOCTYPE svg PUBLIC "-//W3C//DTD SVG 1.1//EN"
  "http://www.w3.org/Graphics/SVG/1.1/DTD/svg11.dtd">
<svg xmlns:xlink="http://www.w3.org/1999/xlink" width="641.388pt" height="272pt" viewBox="0 0 641.388 272" xmlns="http://www.w3.org/2000/svg" version="1.1">
 <metadata>
  <rdf:RDF xmlns:dc="http://purl.org/dc/elements/1.1/" xmlns:cc="http://creativecommons.org/ns#" xmlns:rdf="http://www.w3.org/1999/02/22-rdf-syntax-ns#">
   <cc:Work>
    <dc:type rdf:resource="http://purl.org/dc/dcmitype/StillImage"/>
    <dc:date>2026-01-30T20:37:48.287559</dc:date>
    <dc:format>image/svg+xml</dc:format>
    <dc:creator>
     <cc:Agent>
      <dc:title>Matplotlib v3.10.7, https://matplotlib.org/</dc:title>
     </cc:Agent>
    </dc:creator>
   </cc:Work>
  </rdf:RDF>
 </metadata>
 <defs>
  <style type="text/css">*{stroke-linejoin: round; stroke-linecap: butt}</style>
 </defs>
 <g id="figure_1">
  <g id="patch_1">
   <path d="M 0 272 
L 641.388 272 
L 641.388 0 
L 0 0 
L 0 272 
z
" style="fill: none"/>
  </g>
  <g id="axes_1">
   <g id="patch_2">
    <path d="M 69.708 154.28 
C 74.481656 154.28 79.060438 152.383406 82.435922 149.007922 
C 85.811406 145.632438 87.708 141.053656 87.708 136.28 
C 87.708 131.506344 85.811406 126.927562 82.435922 123.552078 
C 79.060438 120.176594 74.481656 118.28 69.708 118.28 
C 64.934344 118.28 60.355562 120.176594 56.980078 123.552078 
C 53.604594 126.927562 51.708 131.506344 51.708 136.28 
C 51.708 141.053656 53.604594 145.632438 56.980078 149.007922 
C 60.355562 152.383406 64.934344 154.28 69.708 154.28 
L 69.708 154.28 
z
" clip-path="url(#pb7f036dc91)" style="fill: none; stroke: #000000; stroke-width: 2; stroke-linejoin: miter"/>
   </g>
   <g id="patch_3">
    <path d="M 258.708 82.28 
C 258.708 81.086984 258.233571 79.94161 257.389981 79.098019 
C 256.54639 78.254429 255.401016 77.78 254.208 77.78 
C 253.014984 77.78 251.86961 78.254429 251.026019 79.098019 
C 250.182429 79.94161 249.708 81.086984 249.708 82.28 
" clip-path="url(#pb7f036dc91)" style="fill: none; stroke: #000000; stroke-width: 2; stroke-linejoin: miter"/>
   </g>
   <g id="patch_4">
    <path d="M 267.708 82.28 
C 267.708 81.086984 267.233571 79.94161 266.389981 79.098019 
C 265.54639 78.254429 264.401016 77.78 263.208 77.78 
C 262.014984 77.78 260.86961 78.254429 260.026019 79.098019 
C 259.182429 79.94161 258.708 81.086984 258.708 82.28 
" clip-path="url(#pb7f036dc91)" style="fill: none; stroke: #000000; stroke-width: 2; stroke-linejoin: miter"/>
   </g>
   <g id="patch_5">
    <path d="M 276.708 82.28 
C 276.708 81.086984 276.233571 79.94161 275.389981 79.098019 
C 274.54639 78.254429 273.401016 77.78 272.208 77.78 
C 271.014984 77.78 269.86961 78.254429 269.026019 79.098019 
C 268.182429 79.94161 267.708 81.086984 267.708 82.28 
" clip-path="url(#pb7f036dc91)" style="fill: none; stroke: #000000; stroke-width: 2; stroke-linejoin: miter"/>
   </g>
   <g id="patch_6">
    <path d="M 285.708 82.28 
C 285.708 81.086984 285.233571 79.94161 284.389981 79.098019 
C 283.54639 78.254429 282.401016 77.78 281.208 77.78 
C 280.014984 77.78 278.86961 78.254429 278.026019 79.098019 
C 277.182429 79.94161 276.708 81.086984 276.708 82.28 
" clip-path="url(#pb7f036dc91)" style="fill: none; stroke: #000000; stroke-width: 2; stroke-linejoin: miter"/>
   </g>
   <g id="patch_7">
    <path d="M 366.708 136.28 
C 366.708 135.086984 366.233571 133.94161 365.389981 133.098019 
C 364.54639 132.254429 363.401016 131.78 362.208 131.78 
C 361.014984 131.78 359.86961 132.254429 359.026019 133.098019 
C 358.182429 133.94161 357.708 135.086984 357.708 136.28 
" clip-path="url(#pb7f036dc91)" style="fill: none; stroke: #000000; stroke-width: 2; stroke-linejoin: miter"/>
   </g>
   <g id="patch_8">
    <path d="M 375.708 136.28 
C 375.708 135.086984 375.233571 133.94161 374.389981 133.098019 
C 373.54639 132.254429 372.401016 131.78 371.208 131.78 
C 370.014984 131.78 368.86961 132.254429 368.026019 133.098019 
C 367.182429 133.94161 366.708 135.086984 366.708 136.28 
" clip-path="url(#pb7f036dc91)" style="fill: none; stroke: #000000; stroke-width: 2; stroke-linejoin: miter"/>
   </g>
   <g id="patch_9">
    <path d="M 384.708 136.28 
C 384.708 135.086984 384.233571 133.94161 383.389981 133.098019 
C 382.54639 132.254429 381.401016 131.78 380.208 131.78 
C 379.014984 131.78 377.86961 132.254429 377.026019 133.098019 
C 376.182429 133.94161 375.708 135.086984 375.708 136.28 
" clip-path="url(#pb7f036dc91)" style="fill: none; stroke: #000000; stroke-width: 2; stroke-linejoin: miter"/>
   </g>
   <g id="patch_10">
    <path d="M 393.708 136.28 
C 393.708 135.086984 393.233571 133.94161 392.389981 133.098019 
C 391.54639 132.254429 390.401016 131.78 389.208 131.78 
C 388.014984 131.78 386.86961 132.254429 386.026019 133.098019 
C 385.182429 133.94161 384.708 135.086984 384.708 136.28 
" clip-path="url(#pb7f036dc91)" style="fill: none; stroke: #000000; stroke-width: 2; stroke-linejoin: miter"/>
   </g>
   <g id="line2d_1">
    <path d="M 69.708 190.28 
L 69.708 154.28 
L 69.708 154.28 
M 69.708 118.28 
L 69.708 118.28 
L 69.708 82.28 
" clip-path="url(#pb7f036dc91)" style="fill: none; stroke: #000000; stroke-width: 2; stroke-linecap: round"/>
   </g>
   <g id="line2d_2">
    <path d="M 78.708 136.28 
L 77.958 134.416503 
L 77.208 132.68 
L 76.458 131.188831 
L 75.708 130.044617 
L 74.958 129.325334 
L 74.208 129.08 
L 73.458 129.325334 
L 72.708 130.044617 
L 71.958 131.188831 
L 71.208 132.68 
L 70.458 134.416503 
L 69.708 136.28 
L 68.958 138.143497 
L 68.208 139.88 
L 67.458 141.371169 
L 66.708 142.515383 
L 65.958 143.234666 
L 65.208 143.48 
L 64.458 143.234666 
L 63.708 142.515383 
L 62.958 141.371169 
L 62.208 139.88 
L 61.458 138.143497 
L 60.708 136.28 
" clip-path="url(#pb7f036dc91)" style="fill: none; stroke: #000000; stroke-width: 2; stroke-linecap: round"/>
   </g>
   <g id="line2d_3">
    <path d="M 69.708 82.28 
L 87.708 82.28 
L 105.708 82.28 
" clip-path="url(#pb7f036dc91)" style="fill: none; stroke: #000000; stroke-width: 2; stroke-linecap: round"/>
   </g>
   <g id="line2d_4">
    <path d="M 105.708 82.28 
L 141.708 82.28 
L 144.708 73.28 
L 150.708 91.28 
L 156.708 73.28 
L 162.708 91.28 
L 168.708 73.28 
L 174.708 91.28 
L 177.708 82.28 
L 213.708 82.28 
" clip-path="url(#pb7f036dc91)" style="fill: none; stroke: #000000; stroke-width: 2; stroke-linecap: round"/>
   </g>
   <g id="line2d_5">
    <path d="M 213.708 82.28 
L 249.708 82.28 
M 285.708 82.28 
L 321.708 82.28 
" clip-path="url(#pb7f036dc91)" style="fill: none; stroke: #000000; stroke-width: 2; stroke-linecap: round"/>
   </g>
   <g id="line2d_6">
    <path d="M 321.708 82.28 
L 321.708 55.28 
L 321.708 28.28 
" clip-path="url(#pb7f036dc91)" style="fill: none; stroke: #000000; stroke-width: 2; stroke-linecap: round"/>
   </g>
   <g id="line2d_7">
    <path d="M 321.708 28.28 
L 357.708 28.28 
L 360.708 19.28 
L 366.708 37.28 
L 372.708 19.28 
L 378.708 37.28 
L 384.708 19.28 
L 390.708 37.28 
L 393.708 28.28 
L 429.708 28.28 
" clip-path="url(#pb7f036dc91)" style="fill: none; stroke: #000000; stroke-width: 2; stroke-linecap: round"/>
   </g>
   <g id="line2d_8">
    <path d="M 429.708 28.28 
L 480.468 28.28 
M 480.468 19.28 
L 480.468 37.28 
M 486.948 19.28 
L 486.948 37.28 
M 486.948 28.28 
L 537.708 28.28 
" clip-path="url(#pb7f036dc91)" style="fill: none; stroke: #000000; stroke-width: 2; stroke-linecap: round"/>
   </g>
   <g id="line2d_9">
    <path d="M 537.708 28.28 
L 537.708 55.28 
L 537.708 82.28 
" clip-path="url(#pb7f036dc91)" style="fill: none; stroke: #000000; stroke-width: 2; stroke-linecap: round"/>
   </g>
   <g id="line2d_10">
    <path d="M 321.708 82.28 
L 321.708 109.28 
L 321.708 136.28 
" clip-path="url(#pb7f036dc91)" style="fill: none; stroke: #000000; stroke-width: 2; stroke-linecap: round"/>
   </g>
   <g id="line2d_11">
    <path d="M 321.708 136.28 
L 357.708 136.28 
M 393.708 136.28 
L 429.708 136.28 
" clip-path="url(#pb7f036dc91)" style="fill: none; stroke: #000000; stroke-width: 2; stroke-linecap: round"/>
   </g>
   <g id="line2d_12">
    <path d="M 429.708 136.28 
L 480.468 136.28 
M 480.468 127.28 
L 480.468 145.28 
M 486.948 127.28 
L 486.948 145.28 
M 486.948 136.28 
L 537.708 136.28 
" clip-path="url(#pb7f036dc91)" style="fill: none; stroke: #000000; stroke-width: 2; stroke-linecap: round"/>
   </g>
   <g id="line2d_13">
    <path d="M 537.708 136.28 
L 537.708 109.28 
L 537.708 82.28 
" clip-path="url(#pb7f036dc91)" style="fill: none; stroke: #000000; stroke-width: 2; stroke-linecap: round"/>
   </g>
   <g id="line2d_14">
    <path d="M 537.708 82.28 
L 546.708 82.28 
L 555.708 82.28 
" clip-path="url(#pb7f036dc91)" style="fill: none; stroke: #000000; stroke-width: 2; stroke-linecap: round"/>
   </g>
   <g id="line2d_15">
    <path d="M 555.708 82.28 
L 573.708 82.28 
L 591.708 82.28 
" clip-path="url(#pb7f036dc91)" style="fill: none; stroke: #000000; stroke-width: 2; stroke-linecap: round"/>
   </g>
   <g id="line2d_16">
    <path d="M 555.708 82.28 
L 555.708 109.28 
L 555.708 136.28 
" clip-path="url(#pb7f036dc91)" style="fill: none; stroke: #000000; stroke-width: 2; stroke-linecap: round"/>
   </g>
   <g id="line2d_17">
    <path d="M 555.708 136.28 
L 555.708 172.28 
L 564.708 175.28 
L 546.708 181.28 
L 564.708 187.28 
L 546.708 193.28 
L 564.708 199.28 
L 546.708 205.28 
L 555.708 208.28 
L 555.708 244.28 
" clip-path="url(#pb7f036dc91)" style="fill: none; stroke: #000000; stroke-width: 2; stroke-linecap: round"/>
   </g>
   <g id="line2d_18">
    <path d="M 555.708 136.28 
L 591.708 136.28 
L 627.708 136.28 
" clip-path="url(#pb7f036dc91)" style="fill: none; stroke: #000000; stroke-width: 2; stroke-linecap: round"/>
   </g>
   <g id="line2d_19">
    <path d="M 627.708 136.28 
L 627.708 187.04 
M 636.708 187.04 
L 618.708 187.04 
M 636.708 193.52 
L 618.708 193.52 
M 627.708 193.52 
L 627.708 244.28 
" clip-path="url(#pb7f036dc91)" style="fill: none; stroke: #000000; stroke-width: 2; stroke-linecap: round"/>
   </g>
   <g id="line2d_20">
    <path d="M 627.708 244.28 
L 591.708 244.28 
L 555.708 244.28 
" clip-path="url(#pb7f036dc91)" style="fill: none; stroke: #000000; stroke-width: 2; stroke-linecap: round"/>
   </g>
   <g id="line2d_21">
    <path d="M 555.708 244.28 
L 555.708 258.68 
L 546.708 258.68 
L 564.708 258.68 
M 549.408 263 
L 562.008 263 
M 553.908 267.32 
L 557.508 267.32 
" clip-path="url(#pb7f036dc91)" style="fill: none; stroke: #000000; stroke-width: 2; stroke-linecap: round"/>
   </g>
   <g id="line2d_22">
    <path d="M 555.708 244.28 
L 519.708 244.28 
L 483.708 244.28 
" clip-path="url(#pb7f036dc91)" style="fill: none; stroke: #000000; stroke-width: 2; stroke-linecap: round"/>
   </g>
   <g id="line2d_23">
    <path d="M 537.708 82.28 
L 537.708 109.28 
L 537.708 136.28 
" clip-path="url(#pb7f036dc91)" style="fill: none; stroke: #000000; stroke-width: 2; stroke-linecap: round"/>
   </g>
   <g id="line2d_24">
    <path d="M 537.708 136.28 
L 303.708 136.28 
L 69.708 136.28 
" clip-path="url(#pb7f036dc91)" style="fill: none; stroke: #000000; stroke-width: 2; stroke-linecap: round"/>
   </g>
   <g id="line2d_25">
    <path d="M 69.708 136.28 
L 69.708 109.28 
L 69.708 82.28 
" clip-path="url(#pb7f036dc91)" style="fill: none; stroke: #000000; stroke-width: 2; stroke-linecap: round"/>
   </g>
   <g id="text_1">
    <!-- Vin -->
    <g transform="translate(30.803625 128.669375) scale(0.11 -0.11)">
     <defs>
      <path id="DejaVuSans-56" d="M 1831 0 
L 50 4666 
L 709 4666 
L 2188 738 
L 3669 4666 
L 4325 4666 
L 2547 0 
L 1831 0 
z
" transform="scale(0.015625)"/>
      <path id="DejaVuSans-69" d="M 603 3500 
L 1178 3500 
L 1178 0 
L 603 0 
L 603 3500 
z
M 603 4863 
L 1178 4863 
L 1178 4134 
L 603 4134 
L 603 4863 
z
" transform="scale(0.015625)"/>
      <path id="DejaVuSans-6e" d="M 3513 2113 
L 3513 0 
L 2938 0 
L 2938 2094 
Q 2938 2591 2744 2837 
Q 2550 3084 2163 3084 
Q 1697 3084 1428 2787 
Q 1159 2491 1159 1978 
L 1159 0 
L 581 0 
L 581 3500 
L 1159 3500 
L 1159 2956 
Q 1366 3272 1645 3428 
Q 1925 3584 2291 3584 
Q 2894 3584 3203 3211 
Q 3513 2838 3513 2113 
z
" transform="scale(0.015625)"/>
     </defs>
     <use xlink:href="#DejaVuSans-56"/>
     <use xlink:href="#DejaVuSans-69" transform="translate(66.158203 0)"/>
     <use xlink:href="#DejaVuSans-6e" transform="translate(93.941406 0)"/>
    </g>
    <!-- 120V AC -->
    <g transform="translate(1.077844 139.315312) scale(0.11 -0.11)">
     <defs>
      <path id="DejaVuSans-31" d="M 794 531 
L 1825 531 
L 1825 4091 
L 703 3866 
L 703 4441 
L 1819 4666 
L 2450 4666 
L 2450 531 
L 3481 531 
L 3481 0 
L 794 0 
L 794 531 
z
" transform="scale(0.015625)"/>
      <path id="DejaVuSans-32" d="M 1228 531 
L 3431 531 
L 3431 0 
L 469 0 
L 469 531 
Q 828 903 1448 1529 
Q 2069 2156 2228 2338 
Q 2531 2678 2651 2914 
Q 2772 3150 2772 3378 
Q 2772 3750 2511 3984 
Q 2250 4219 1831 4219 
Q 1534 4219 1204 4116 
Q 875 4013 500 3803 
L 500 4441 
Q 881 4594 1212 4672 
Q 1544 4750 1819 4750 
Q 2544 4750 2975 4387 
Q 3406 4025 3406 3419 
Q 3406 3131 3298 2873 
Q 3191 2616 2906 2266 
Q 2828 2175 2409 1742 
Q 1991 1309 1228 531 
z
" transform="scale(0.015625)"/>
      <path id="DejaVuSans-30" d="M 2034 4250 
Q 1547 4250 1301 3770 
Q 1056 3291 1056 2328 
Q 1056 1369 1301 889 
Q 1547 409 2034 409 
Q 2525 409 2770 889 
Q 3016 1369 3016 2328 
Q 3016 3291 2770 3770 
Q 2525 4250 2034 4250 
z
M 2034 4750 
Q 2819 4750 3233 4129 
Q 3647 3509 3647 2328 
Q 3647 1150 3233 529 
Q 2819 -91 2034 -91 
Q 1250 -91 836 529 
Q 422 1150 422 2328 
Q 422 3509 836 4129 
Q 1250 4750 2034 4750 
z
" transform="scale(0.015625)"/>
      <path id="DejaVuSans-20" transform="scale(0.015625)"/>
      <path id="DejaVuSans-41" d="M 2188 4044 
L 1331 1722 
L 3047 1722 
L 2188 4044 
z
M 1831 4666 
L 2547 4666 
L 4325 0 
L 3669 0 
L 3244 1197 
L 1141 1197 
L 716 0 
L 50 0 
L 1831 4666 
z
" transform="scale(0.015625)"/>
      <path id="DejaVuSans-43" d="M 4122 4306 
L 4122 3641 
Q 3803 3938 3442 4084 
Q 3081 4231 2675 4231 
Q 1875 4231 1450 3742 
Q 1025 3253 1025 2328 
Q 1025 1406 1450 917 
Q 1875 428 2675 428 
Q 3081 428 3442 575 
Q 3803 722 4122 1019 
L 4122 359 
Q 3791 134 3420 21 
Q 3050 -91 2638 -91 
Q 1578 -91 968 557 
Q 359 1206 359 2328 
Q 359 3453 968 4101 
Q 1578 4750 2638 4750 
Q 3056 4750 3426 4639 
Q 3797 4528 4122 4306 
z
" transform="scale(0.015625)"/>
     </defs>
     <use xlink:href="#DejaVuSans-31"/>
     <use xlink:href="#DejaVuSans-32" transform="translate(63.623047 0)"/>
     <use xlink:href="#DejaVuSans-30" transform="translate(127.246094 0)"/>
     <use xlink:href="#DejaVuSans-56" transform="translate(190.869141 0)"/>
     <use xlink:href="#DejaVuSans-20" transform="translate(259.277344 0)"/>
     <use xlink:href="#DejaVuSans-41" transform="translate(291.064453 0)"/>
     <use xlink:href="#DejaVuSans-43" transform="translate(357.722656 0)"/>
    </g>
    <!-- 60Hz -->
    <g transform="translate(20.064875 149.96125) scale(0.11 -0.11)">
     <defs>
      <path id="DejaVuSans-36" d="M 2113 2584 
Q 1688 2584 1439 2293 
Q 1191 2003 1191 1497 
Q 1191 994 1439 701 
Q 1688 409 2113 409 
Q 2538 409 2786 701 
Q 3034 994 3034 1497 
Q 3034 2003 2786 2293 
Q 2538 2584 2113 2584 
z
M 3366 4563 
L 3366 3988 
Q 3128 4100 2886 4159 
Q 2644 4219 2406 4219 
Q 1781 4219 1451 3797 
Q 1122 3375 1075 2522 
Q 1259 2794 1537 2939 
Q 1816 3084 2150 3084 
Q 2853 3084 3261 2657 
Q 3669 2231 3669 1497 
Q 3669 778 3244 343 
Q 2819 -91 2113 -91 
Q 1303 -91 875 529 
Q 447 1150 447 2328 
Q 447 3434 972 4092 
Q 1497 4750 2381 4750 
Q 2619 4750 2861 4703 
Q 3103 4656 3366 4563 
z
" transform="scale(0.015625)"/>
      <path id="DejaVuSans-48" d="M 628 4666 
L 1259 4666 
L 1259 2753 
L 3553 2753 
L 3553 4666 
L 4184 4666 
L 4184 0 
L 3553 0 
L 3553 2222 
L 1259 2222 
L 1259 0 
L 628 0 
L 628 4666 
z
" transform="scale(0.015625)"/>
      <path id="DejaVuSans-7a" d="M 353 3500 
L 3084 3500 
L 3084 2975 
L 922 459 
L 3084 459 
L 3084 0 
L 275 0 
L 275 525 
L 2438 3041 
L 353 3041 
L 353 3500 
z
" transform="scale(0.015625)"/>
     </defs>
     <use xlink:href="#DejaVuSans-36"/>
     <use xlink:href="#DejaVuSans-30" transform="translate(63.623047 0)"/>
     <use xlink:href="#DejaVuSans-48" transform="translate(127.246094 0)"/>
     <use xlink:href="#DejaVuSans-7a" transform="translate(202.441406 0)"/>
    </g>
   </g>
   <g id="text_2">
    <!-- R₁  100Ω -->
    <g transform="translate(135.483937 67.392344) scale(0.11 -0.11)">
     <defs>
      <path id="DejaVuSans-52" d="M 2841 2188 
Q 3044 2119 3236 1894 
Q 3428 1669 3622 1275 
L 4263 0 
L 3584 0 
L 2988 1197 
Q 2756 1666 2539 1819 
Q 2322 1972 1947 1972 
L 1259 1972 
L 1259 0 
L 628 0 
L 628 4666 
L 2053 4666 
Q 2853 4666 3247 4331 
Q 3641 3997 3641 3322 
Q 3641 2881 3436 2590 
Q 3231 2300 2841 2188 
z
M 1259 4147 
L 1259 2491 
L 2053 2491 
Q 2509 2491 2742 2702 
Q 2975 2913 2975 3322 
Q 2975 3731 2742 3939 
Q 2509 4147 2053 4147 
L 1259 4147 
z
" transform="scale(0.015625)"/>
      <path id="DejaVuSans-2081" d="M 488 319 
L 1125 319 
L 1125 2229 
L 428 2101 
L 428 2463 
L 1147 2585 
L 1575 2585 
L 1575 319 
L 2216 319 
L 2216 -24 
L 488 -24 
L 488 319 
z
" transform="scale(0.015625)"/>
      <path id="DejaVuSans-3a9" d="M 4647 556 
L 4647 0 
L 2772 0 
L 2772 556 
Q 3325 859 3634 1378 
Q 3944 1897 3944 2528 
Q 3944 3278 3531 3731 
Q 3119 4184 2444 4184 
Q 1769 4184 1355 3729 
Q 941 3275 941 2528 
Q 941 1897 1250 1378 
Q 1563 859 2119 556 
L 2119 0 
L 244 0 
L 244 556 
L 1241 556 
Q 747 991 519 1456 
Q 294 1922 294 2497 
Q 294 3491 894 4106 
Q 1491 4722 2444 4722 
Q 3391 4722 3994 4106 
Q 4594 3494 4594 2528 
Q 4594 1922 4372 1459 
Q 4150 997 3647 556 
L 4647 556 
z
" transform="scale(0.015625)"/>
     </defs>
     <use xlink:href="#DejaVuSans-52"/>
     <use xlink:href="#DejaVuSans-2081" transform="translate(69.482422 0)"/>
     <use xlink:href="#DejaVuSans-20" transform="translate(109.570312 0)"/>
     <use xlink:href="#DejaVuSans-20" transform="translate(141.357422 0)"/>
     <use xlink:href="#DejaVuSans-31" transform="translate(173.144531 0)"/>
     <use xlink:href="#DejaVuSans-30" transform="translate(236.767578 0)"/>
     <use xlink:href="#DejaVuSans-30" transform="translate(300.390625 0)"/>
     <use xlink:href="#DejaVuSans-3a9" transform="translate(364.013672 0)"/>
    </g>
   </g>
   <g id="text_3">
    <!-- L₁  50mH -->
    <g transform="translate(242.450109 71.892366) scale(0.11 -0.11)">
     <defs>
      <path id="DejaVuSans-4c" d="M 628 4666 
L 1259 4666 
L 1259 531 
L 3531 531 
L 3531 0 
L 628 0 
L 628 4666 
z
" transform="scale(0.015625)"/>
      <path id="DejaVuSans-35" d="M 691 4666 
L 3169 4666 
L 3169 4134 
L 1269 4134 
L 1269 2991 
Q 1406 3038 1543 3061 
Q 1681 3084 1819 3084 
Q 2600 3084 3056 2656 
Q 3513 2228 3513 1497 
Q 3513 744 3044 326 
Q 2575 -91 1722 -91 
Q 1428 -91 1123 -41 
Q 819 9 494 109 
L 494 744 
Q 775 591 1075 516 
Q 1375 441 1709 441 
Q 2250 441 2565 725 
Q 2881 1009 2881 1497 
Q 2881 1984 2565 2268 
Q 2250 2553 1709 2553 
Q 1456 2553 1204 2497 
Q 953 2441 691 2322 
L 691 4666 
z
" transform="scale(0.015625)"/>
      <path id="DejaVuSans-6d" d="M 3328 2828 
Q 3544 3216 3844 3400 
Q 4144 3584 4550 3584 
Q 5097 3584 5394 3201 
Q 5691 2819 5691 2113 
L 5691 0 
L 5113 0 
L 5113 2094 
Q 5113 2597 4934 2840 
Q 4756 3084 4391 3084 
Q 3944 3084 3684 2787 
Q 3425 2491 3425 1978 
L 3425 0 
L 2847 0 
L 2847 2094 
Q 2847 2600 2669 2842 
Q 2491 3084 2119 3084 
Q 1678 3084 1418 2786 
Q 1159 2488 1159 1978 
L 1159 0 
L 581 0 
L 581 3500 
L 1159 3500 
L 1159 2956 
Q 1356 3278 1631 3431 
Q 1906 3584 2284 3584 
Q 2666 3584 2933 3390 
Q 3200 3197 3328 2828 
z
" transform="scale(0.015625)"/>
     </defs>
     <use xlink:href="#DejaVuSans-4c"/>
     <use xlink:href="#DejaVuSans-2081" transform="translate(55.712891 0)"/>
     <use xlink:href="#DejaVuSans-20" transform="translate(95.800781 0)"/>
     <use xlink:href="#DejaVuSans-20" transform="translate(127.587891 0)"/>
     <use xlink:href="#DejaVuSans-35" transform="translate(159.375 0)"/>
     <use xlink:href="#DejaVuSans-30" transform="translate(222.998047 0)"/>
     <use xlink:href="#DejaVuSans-6d" transform="translate(286.621094 0)"/>
     <use xlink:href="#DejaVuSans-48" transform="translate(384.033203 0)"/>
    </g>
   </g>
   <g id="text_4">
    <!-- R₂  1kΩ -->
    <g transform="translate(355.297844 13.392344) scale(0.11 -0.11)">
     <defs>
      <path id="DejaVuSans-2082" d="M 838 332 
L 2163 332 
L 2163 -24 
L 294 -24 
L 294 319 
Q 400 416 597 591 
Q 1672 1544 1672 1838 
Q 1672 2044 1509 2170 
Q 1347 2297 1081 2297 
Q 919 2297 728 2242 
Q 538 2188 313 2079 
L 313 2463 
Q 553 2551 761 2594 
Q 969 2638 1147 2638 
Q 1600 2638 1872 2432 
Q 2144 2226 2144 1888 
Q 2144 1454 1109 566 
Q 934 416 838 332 
z
" transform="scale(0.015625)"/>
      <path id="DejaVuSans-6b" d="M 581 4863 
L 1159 4863 
L 1159 1991 
L 2875 3500 
L 3609 3500 
L 1753 1863 
L 3688 0 
L 2938 0 
L 1159 1709 
L 1159 0 
L 581 0 
L 581 4863 
z
" transform="scale(0.015625)"/>
     </defs>
     <use xlink:href="#DejaVuSans-52"/>
     <use xlink:href="#DejaVuSans-2082" transform="translate(69.482422 0)"/>
     <use xlink:href="#DejaVuSans-20" transform="translate(109.570312 0)"/>
     <use xlink:href="#DejaVuSans-20" transform="translate(141.357422 0)"/>
     <use xlink:href="#DejaVuSans-31" transform="translate(173.144531 0)"/>
     <use xlink:href="#DejaVuSans-6b" transform="translate(236.767578 0)"/>
     <use xlink:href="#DejaVuSans-3a9" transform="translate(294.677734 0)"/>
    </g>
   </g>
   <g id="text_5">
    <!-- C₁  10μF -->
    <g transform="translate(460.504875 13.392344) scale(0.11 -0.11)">
     <defs>
      <path id="DejaVuSans-3bc" d="M 544 -1331 
L 544 3500 
L 1119 3500 
L 1119 1325 
Q 1119 872 1334 640 
Q 1550 409 1972 409 
Q 2434 409 2667 671 
Q 2900 934 2900 1459 
L 2900 3500 
L 3475 3500 
L 3475 806 
Q 3475 619 3529 530 
Q 3584 441 3700 441 
Q 3728 441 3778 458 
Q 3828 475 3916 513 
L 3916 50 
Q 3788 -22 3673 -56 
Q 3559 -91 3450 -91 
Q 3234 -91 3106 31 
Q 2978 153 2931 403 
Q 2775 156 2548 32 
Q 2322 -91 2016 -91 
Q 1697 -91 1473 31 
Q 1250 153 1119 397 
L 1119 -1331 
L 544 -1331 
z
" transform="scale(0.015625)"/>
      <path id="DejaVuSans-46" d="M 628 4666 
L 3309 4666 
L 3309 4134 
L 1259 4134 
L 1259 2759 
L 3109 2759 
L 3109 2228 
L 1259 2228 
L 1259 0 
L 628 0 
L 628 4666 
z
" transform="scale(0.015625)"/>
     </defs>
     <use xlink:href="#DejaVuSans-43"/>
     <use xlink:href="#DejaVuSans-2081" transform="translate(69.824219 0)"/>
     <use xlink:href="#DejaVuSans-20" transform="translate(109.912109 0)"/>
     <use xlink:href="#DejaVuSans-20" transform="translate(141.699219 0)"/>
     <use xlink:href="#DejaVuSans-31" transform="translate(173.486328 0)"/>
     <use xlink:href="#DejaVuSans-30" transform="translate(237.109375 0)"/>
     <use xlink:href="#DejaVuSans-3bc" transform="translate(300.732422 0)"/>
     <use xlink:href="#DejaVuSans-46" transform="translate(364.355469 0)"/>
    </g>
   </g>
   <g id="text_6">
    <!-- L₂  100mH -->
    <g transform="translate(346.950734 125.892366) scale(0.11 -0.11)">
     <use xlink:href="#DejaVuSans-4c"/>
     <use xlink:href="#DejaVuSans-2082" transform="translate(55.712891 0)"/>
     <use xlink:href="#DejaVuSans-20" transform="translate(95.800781 0)"/>
     <use xlink:href="#DejaVuSans-20" transform="translate(127.587891 0)"/>
     <use xlink:href="#DejaVuSans-31" transform="translate(159.375 0)"/>
     <use xlink:href="#DejaVuSans-30" transform="translate(222.998047 0)"/>
     <use xlink:href="#DejaVuSans-30" transform="translate(286.621094 0)"/>
     <use xlink:href="#DejaVuSans-6d" transform="translate(350.244141 0)"/>
     <use xlink:href="#DejaVuSans-48" transform="translate(447.65625 0)"/>
    </g>
   </g>
   <g id="text_7">
    <!-- C₂  1μF -->
    <g transform="translate(464.00425 121.392344) scale(0.11 -0.11)">
     <use xlink:href="#DejaVuSans-43"/>
     <use xlink:href="#DejaVuSans-2082" transform="translate(69.824219 0)"/>
     <use xlink:href="#DejaVuSans-20" transform="translate(109.912109 0)"/>
     <use xlink:href="#DejaVuSans-20" transform="translate(141.699219 0)"/>
     <use xlink:href="#DejaVuSans-31" transform="translate(173.486328 0)"/>
     <use xlink:href="#DejaVuSans-3bc" transform="translate(237.109375 0)"/>
     <use xlink:href="#DejaVuSans-46" transform="translate(300.732422 0)"/>
    </g>
   </g>
   <g id="text_8">
    <!-- Vout -->
    <g transform="translate(595.308 85.315312) scale(0.11 -0.11)">
     <defs>
      <path id="DejaVuSans-6f" d="M 1959 3097 
Q 1497 3097 1228 2736 
Q 959 2375 959 1747 
Q 959 1119 1226 758 
Q 1494 397 1959 397 
Q 2419 397 2687 759 
Q 2956 1122 2956 1747 
Q 2956 2369 2687 2733 
Q 2419 3097 1959 3097 
z
M 1959 3584 
Q 2709 3584 3137 3096 
Q 3566 2609 3566 1747 
Q 3566 888 3137 398 
Q 2709 -91 1959 -91 
Q 1206 -91 779 398 
Q 353 888 353 1747 
Q 353 2609 779 3096 
Q 1206 3584 1959 3584 
z
" transform="scale(0.015625)"/>
      <path id="DejaVuSans-75" d="M 544 1381 
L 544 3500 
L 1119 3500 
L 1119 1403 
Q 1119 906 1312 657 
Q 1506 409 1894 409 
Q 2359 409 2629 706 
Q 2900 1003 2900 1516 
L 2900 3500 
L 3475 3500 
L 3475 0 
L 2900 0 
L 2900 538 
Q 2691 219 2414 64 
Q 2138 -91 1772 -91 
Q 1169 -91 856 284 
Q 544 659 544 1381 
z
M 1991 3584 
L 1991 3584 
z
" transform="scale(0.015625)"/>
      <path id="DejaVuSans-74" d="M 1172 4494 
L 1172 3500 
L 2356 3500 
L 2356 3053 
L 1172 3053 
L 1172 1153 
Q 1172 725 1289 603 
Q 1406 481 1766 481 
L 2356 481 
L 2356 0 
L 1766 0 
Q 1100 0 847 248 
Q 594 497 594 1153 
L 594 3053 
L 172 3053 
L 172 3500 
L 594 3500 
L 594 4494 
L 1172 4494 
z
" transform="scale(0.015625)"/>
     </defs>
     <use xlink:href="#DejaVuSans-56"/>
     <use xlink:href="#DejaVuSans-6f" transform="translate(60.658203 0)"/>
     <use xlink:href="#DejaVuSans-75" transform="translate(121.839844 0)"/>
     <use xlink:href="#DejaVuSans-74" transform="translate(185.21875 0)"/>
    </g>
   </g>
   <g id="text_9">
    <!-- R₃ -->
    <g transform="translate(531.054406 182.669375) scale(0.11 -0.11)">
     <defs>
      <path id="DejaVuSans-2083" d="M 1638 1388 
Q 1925 1332 2083 1161 
Q 2241 991 2241 735 
Q 2241 347 1944 138 
Q 1647 -71 1094 -71 
Q 916 -71 720 -38 
Q 525 -6 306 57 
L 306 435 
Q 469 351 655 310 
Q 841 269 1050 269 
Q 1391 269 1578 392 
Q 1766 516 1766 735 
Q 1766 966 1592 1085 
Q 1419 1204 1081 1204 
L 813 1204 
L 813 1541 
L 1106 1541 
Q 1400 1541 1551 1639 
Q 1703 1738 1703 1926 
Q 1703 2107 1547 2202 
Q 1391 2297 1094 2297 
Q 969 2297 809 2269 
Q 650 2241 397 2169 
L 397 2529 
Q 625 2582 825 2610 
Q 1025 2638 1197 2638 
Q 1647 2638 1911 2453 
Q 2175 2269 2175 1960 
Q 2175 1744 2034 1594 
Q 1894 1444 1638 1388 
z
" transform="scale(0.015625)"/>
     </defs>
     <use xlink:href="#DejaVuSans-52"/>
     <use xlink:href="#DejaVuSans-2083" transform="translate(69.482422 0)"/>
    </g>
    <!-- 10kΩ -->
    <g transform="translate(514.334406 193.315312) scale(0.11 -0.11)">
     <use xlink:href="#DejaVuSans-31"/>
     <use xlink:href="#DejaVuSans-30" transform="translate(63.623047 0)"/>
     <use xlink:href="#DejaVuSans-6b" transform="translate(127.246094 0)"/>
     <use xlink:href="#DejaVuSans-3a9" transform="translate(185.15625 0)"/>
    </g>
    <!-- (Load) -->
    <g transform="translate(508.133156 203.96125) scale(0.11 -0.11)">
     <defs>
      <path id="DejaVuSans-28" d="M 1984 4856 
Q 1566 4138 1362 3434 
Q 1159 2731 1159 2009 
Q 1159 1288 1364 580 
Q 1569 -128 1984 -844 
L 1484 -844 
Q 1016 -109 783 600 
Q 550 1309 550 2009 
Q 550 2706 781 3412 
Q 1013 4119 1484 4856 
L 1984 4856 
z
" transform="scale(0.015625)"/>
      <path id="DejaVuSans-61" d="M 2194 1759 
Q 1497 1759 1228 1600 
Q 959 1441 959 1056 
Q 959 750 1161 570 
Q 1363 391 1709 391 
Q 2188 391 2477 730 
Q 2766 1069 2766 1631 
L 2766 1759 
L 2194 1759 
z
M 3341 1997 
L 3341 0 
L 2766 0 
L 2766 531 
Q 2569 213 2275 61 
Q 1981 -91 1556 -91 
Q 1019 -91 701 211 
Q 384 513 384 1019 
Q 384 1609 779 1909 
Q 1175 2209 1959 2209 
L 2766 2209 
L 2766 2266 
Q 2766 2663 2505 2880 
Q 2244 3097 1772 3097 
Q 1472 3097 1187 3025 
Q 903 2953 641 2809 
L 641 3341 
Q 956 3463 1253 3523 
Q 1550 3584 1831 3584 
Q 2591 3584 2966 3190 
Q 3341 2797 3341 1997 
z
" transform="scale(0.015625)"/>
      <path id="DejaVuSans-64" d="M 2906 2969 
L 2906 4863 
L 3481 4863 
L 3481 0 
L 2906 0 
L 2906 525 
Q 2725 213 2448 61 
Q 2172 -91 1784 -91 
Q 1150 -91 751 415 
Q 353 922 353 1747 
Q 353 2572 751 3078 
Q 1150 3584 1784 3584 
Q 2172 3584 2448 3432 
Q 2725 3281 2906 2969 
z
M 947 1747 
Q 947 1113 1208 752 
Q 1469 391 1925 391 
Q 2381 391 2643 752 
Q 2906 1113 2906 1747 
Q 2906 2381 2643 2742 
Q 2381 3103 1925 3103 
Q 1469 3103 1208 2742 
Q 947 2381 947 1747 
z
" transform="scale(0.015625)"/>
      <path id="DejaVuSans-29" d="M 513 4856 
L 1013 4856 
Q 1481 4119 1714 3412 
Q 1947 2706 1947 2009 
Q 1947 1309 1714 600 
Q 1481 -109 1013 -844 
L 513 -844 
Q 928 -128 1133 580 
Q 1338 1288 1338 2009 
Q 1338 2731 1133 3434 
Q 928 4138 513 4856 
z
" transform="scale(0.015625)"/>
     </defs>
     <use xlink:href="#DejaVuSans-28"/>
     <use xlink:href="#DejaVuSans-4c" transform="translate(39.013672 0)"/>
     <use xlink:href="#DejaVuSans-6f" transform="translate(92.976562 0)"/>
     <use xlink:href="#DejaVuSans-61" transform="translate(154.158203 0)"/>
     <use xlink:href="#DejaVuSans-64" transform="translate(215.4375 0)"/>
     <use xlink:href="#DejaVuSans-29" transform="translate(278.914062 0)"/>
    </g>
   </g>
   <g id="text_10">
    <!-- C₃  100nF -->
    <g transform="translate(561.7305 193.315312) scale(0.11 -0.11)">
     <use xlink:href="#DejaVuSans-43"/>
     <use xlink:href="#DejaVuSans-2083" transform="translate(69.824219 0)"/>
     <use xlink:href="#DejaVuSans-20" transform="translate(109.912109 0)"/>
     <use xlink:href="#DejaVuSans-20" transform="translate(141.699219 0)"/>
     <use xlink:href="#DejaVuSans-31" transform="translate(173.486328 0)"/>
     <use xlink:href="#DejaVuSans-30" transform="translate(237.109375 0)"/>
     <use xlink:href="#DejaVuSans-30" transform="translate(300.732422 0)"/>
     <use xlink:href="#DejaVuSans-6e" transform="translate(364.355469 0)"/>
     <use xlink:href="#DejaVuSans-46" transform="translate(427.734375 0)"/>
    </g>
   </g>
   <g id="patch_11">
    <path d="M 321.708 84.98 
C 322.424048 84.98 323.110866 84.695511 323.617188 84.189188 
C 324.123511 83.682866 324.408 82.996048 324.408 82.28 
C 324.408 81.563952 324.123511 80.877134 323.617188 80.370812 
C 323.110866 79.864489 322.424048 79.58 321.708 79.58 
C 320.991952 79.58 320.305134 79.864489 319.798812 80.370812 
C 319.292489 80.877134 319.008 81.563952 319.008 82.28 
C 319.008 82.996048 319.292489 83.682866 319.798812 84.189188 
C 320.305134 84.695511 320.991952 84.98 321.708 84.98 
z
" clip-path="url(#pb7f036dc91)" style="stroke: #000000; stroke-width: 2; stroke-linejoin: miter"/>
   </g>
   <g id="patch_12">
    <path d="M 537.708 84.98 
C 538.424048 84.98 539.110866 84.695511 539.617188 84.189188 
C 540.123511 83.682866 540.408 82.996048 540.408 82.28 
C 540.408 81.563952 540.123511 80.877134 539.617188 80.370812 
C 539.110866 79.864489 538.424048 79.58 537.708 79.58 
C 536.991952 79.58 536.305134 79.864489 535.798812 80.370812 
C 535.292489 80.877134 535.008 81.563952 535.008 82.28 
C 535.008 82.996048 535.292489 83.682866 535.798812 84.189188 
C 536.305134 84.695511 536.991952 84.98 537.708 84.98 
z
" clip-path="url(#pb7f036dc91)" style="stroke: #000000; stroke-width: 2; stroke-linejoin: miter"/>
   </g>
   <g id="patch_13">
    <path d="M 537.708 84.98 
C 538.424048 84.98 539.110866 84.695511 539.617188 84.189188 
C 540.123511 83.682866 540.408 82.996048 540.408 82.28 
C 540.408 81.563952 540.123511 80.877134 539.617188 80.370812 
C 539.110866 79.864489 538.424048 79.58 537.708 79.58 
C 536.991952 79.58 536.305134 79.864489 535.798812 80.370812 
C 535.292489 80.877134 535.008 81.563952 535.008 82.28 
C 535.008 82.996048 535.292489 83.682866 535.798812 84.189188 
C 536.305134 84.695511 536.991952 84.98 537.708 84.98 
z
" clip-path="url(#pb7f036dc91)" style="stroke: #000000; stroke-width: 2; stroke-linejoin: miter"/>
   </g>
   <g id="patch_14">
    <path d="M 555.708 84.98 
C 556.424048 84.98 557.110866 84.695511 557.617188 84.189188 
C 558.123511 83.682866 558.408 82.996048 558.408 82.28 
C 558.408 81.563952 558.123511 80.877134 557.617188 80.370812 
C 557.110866 79.864489 556.424048 79.58 555.708 79.58 
C 554.991952 79.58 554.305134 79.864489 553.798812 80.370812 
C 553.292489 80.877134 553.008 81.563952 553.008 82.28 
C 553.008 82.996048 553.292489 83.682866 553.798812 84.189188 
C 554.305134 84.695511 554.991952 84.98 555.708 84.98 
z
" clip-path="url(#pb7f036dc91)" style="stroke: #000000; stroke-width: 2; stroke-linejoin: miter"/>
   </g>
   <g id="patch_15">
    <path d="M 555.708 138.98 
C 556.424048 138.98 557.110866 138.695511 557.617188 138.189188 
C 558.123511 137.682866 558.408 136.996048 558.408 136.28 
C 558.408 135.563952 558.123511 134.877134 557.617188 134.370812 
C 557.110866 133.864489 556.424048 133.58 555.708 133.58 
C 554.991952 133.58 554.305134 133.864489 553.798812 134.370812 
C 553.292489 134.877134 553.008 135.563952 553.008 136.28 
C 553.008 136.996048 553.292489 137.682866 553.798812 138.189188 
C 554.305134 138.695511 554.991952 138.98 555.708 138.98 
z
" clip-path="url(#pb7f036dc91)" style="stroke: #000000; stroke-width: 2; stroke-linejoin: miter"/>
   </g>
   <g id="patch_16">
    <path d="M 555.708 246.98 
C 556.424048 246.98 557.110866 246.695511 557.617188 246.189188 
C 558.123511 245.682866 558.408 244.996048 558.408 244.28 
C 558.408 243.563952 558.123511 242.877134 557.617188 242.370812 
C 557.110866 241.864489 556.424048 241.58 555.708 241.58 
C 554.991952 241.58 554.305134 241.864489 553.798812 242.370812 
C 553.292489 242.877134 553.008 243.563952 553.008 244.28 
C 553.008 244.996048 553.292489 245.682866 553.798812 246.189188 
C 554.305134 246.695511 554.991952 246.98 555.708 246.98 
z
" clip-path="url(#pb7f036dc91)" style="stroke: #000000; stroke-width: 2; stroke-linejoin: miter"/>
   </g>
  </g>
 </g>
 <defs>
  <clipPath id="pb7f036dc91">
   <rect x="0" y="0" width="641.388" height="272"/>
  </clipPath>
 </defs>
</svg>
